<svg width="120" height="120" viewBox="0 0 120 120" fill="none" xmlns="http://www.w3.org/2000/svg">
<g clip-path="url(#clip0_193_1098)">
<path d="M108.905 101.835C115.285 95.5244 119.188 87.1343 119.905 78.1897C120.66 69.1175 118.282 60.0607 113.168 52.5296C108.053 44.9985 100.511 39.4484 91.8002 36.8047C90.9434 36.5375 90.1659 36.0626 89.537 35.4223C88.908 34.782 88.4471 33.9962 88.1952 33.1347C86.2201 26.6602 82.6263 20.7965 77.7536 16.0979C72.8809 11.3993 66.8903 8.02107 60.3483 6.2827C53.8062 4.54434 46.9289 4.50323 40.3666 6.16329C33.8042 7.82334 27.7737 11.1297 22.8452 15.7697L8.5352 1.46472C7.59218 0.553926 6.32917 0.0499541 5.01819 0.0613462C3.70721 0.0727383 2.45314 0.598583 1.5261 1.52562C0.599061 2.45266 0.0732167 3.70673 0.0618246 5.01771C0.0504325 6.32869 0.554405 7.59171 1.4652 8.53472L111.465 118.535C112.408 119.446 113.671 119.949 114.982 119.938C116.293 119.927 117.547 119.401 118.474 118.474C119.401 117.547 119.927 116.293 119.939 114.982C119.95 113.671 119.446 112.408 118.535 111.465L108.905 101.835ZM45.5002 15.3247C52.5937 14.2481 59.838 15.7529 65.9159 19.5653C71.9939 23.3778 76.5018 29.2449 78.6202 36.0997C79.3597 38.5127 80.6772 40.7086 82.4583 42.4966C84.2394 44.2847 86.4301 45.6108 88.8402 46.3597C95.3726 48.3462 101.027 52.5118 104.86 58.1621C108.693 63.8123 110.474 70.6057 109.905 77.4097C109.389 83.9713 106.496 90.119 101.77 94.6997L29.9102 22.8397C34.2477 18.8456 39.6738 16.23 45.5002 15.3247ZM84.9652 109.14C85.1053 110.457 84.717 111.776 83.8855 112.807C83.054 113.838 81.8472 114.497 80.5302 114.64C78.3365 114.876 76.1316 114.992 73.9252 114.99H28.4252C21.7583 114.873 15.3317 112.48 10.2129 108.207C5.09399 103.934 1.59084 98.0386 0.285195 91.4997C-0.564568 85.8763 0.367711 80.1281 2.9512 75.0615C5.53469 69.995 9.63972 65.8645 14.6902 63.2497C10.6912 55.9481 9.18489 47.5406 10.4002 39.3047C10.5845 37.9912 11.2831 36.8048 12.3422 36.0063C13.4013 35.2079 14.7342 34.8629 16.0477 35.0472C17.3612 35.2315 18.5476 35.9301 19.3461 36.9892C20.1445 38.0483 20.4895 39.3812 20.3052 40.6947C19.417 46.8363 20.4657 53.102 23.3052 58.6197C24.5567 60.9373 24.8433 63.6551 24.1028 66.1827C23.3623 68.7104 21.6545 70.8438 19.3502 72.1197C16.1341 73.7868 13.521 76.4194 11.8781 79.6479C10.2351 82.8764 9.64486 86.5385 10.1902 90.1197C11.1224 94.2829 13.4255 98.0124 16.7302 100.711C20.0348 103.409 24.1497 104.919 28.4152 105H73.9152C75.7642 105.001 77.6119 104.903 79.4502 104.705C80.7686 104.57 82.0871 104.959 83.1203 105.79C84.1534 106.62 84.818 107.823 84.9702 109.14H84.9652Z" fill="white"/>
</g>
<defs>
<clipPath id="clip0_193_1098">
<rect width="120" height="120" fill="white"/>
</clipPath>
</defs>
</svg>
