<?xml version="1.0" encoding="UTF-8" ?>
<!DOCTYPE svg PUBLIC "-//W3C//DTD SVG 1.1//EN" "http://www.w3.org/Graphics/SVG/1.1/DTD/svg11.dtd">
<svg width="512pt" height="512pt" viewBox="0 0 512 512" version="1.1" xmlns="http://www.w3.org/2000/svg">
<g id="#000000ff">
<path fill="#000000" opacity="1.00" d=" M 345.49 0.00 L 350.80 0.00 C 366.68 1.11 380.46 14.97 380.93 30.97 C 382.16 47.27 369.26 62.95 353.06 64.98 C 337.47 67.61 321.17 57.07 316.99 41.87 C 313.64 30.83 316.77 18.15 324.89 9.95 C 330.29 4.29 337.77 0.93 345.49 0.00 M 344.37 15.45 C 337.47 16.97 331.84 22.98 330.87 29.98 C 329.74 36.64 332.92 43.70 338.55 47.38 C 343.53 50.77 350.29 51.28 355.73 48.70 C 361.09 46.26 365.05 40.99 365.82 35.14 C 366.67 29.48 364.51 23.51 360.27 19.67 C 356.09 15.75 349.94 14.14 344.37 15.45 Z" />
<path fill="#000000" opacity="1.00" d=" M 165.56 34.00 C 165.94 28.88 172.29 25.64 176.65 28.35 C 179.62 30.40 181.85 33.30 184.47 35.75 C 188.26 32.67 191.18 26.84 196.82 27.44 C 201.97 27.80 205.27 34.23 202.46 38.61 C 200.38 41.52 197.52 43.75 195.10 46.37 C 198.11 50.01 203.45 52.71 203.46 58.01 C 203.59 63.34 197.14 67.18 192.53 64.49 C 189.45 62.46 187.19 59.46 184.51 56.98 C 181.59 59.54 179.31 62.95 175.83 64.78 C 170.85 67.10 164.67 62.38 165.55 56.97 C 166.35 52.27 171.03 49.80 173.88 46.39 C 170.77 42.58 164.98 39.67 165.56 34.00 Z" />
<path fill="#000000" opacity="1.00" d=" M 116.99 81.01 C 127.35 72.27 143.01 70.66 154.93 77.12 C 164.83 82.21 171.64 92.33 173.23 103.29 C 179.29 100.04 185.30 96.67 191.39 93.46 C 195.30 91.32 200.18 91.05 204.24 92.96 C 207.94 94.65 210.34 98.07 212.97 101.02 C 227.31 117.47 241.62 133.95 256.01 150.37 C 264.83 140.28 273.64 130.18 282.42 120.06 C 276.72 112.94 274.32 103.26 276.67 94.38 C 279.87 80.74 293.99 70.85 307.92 72.71 C 321.80 73.95 333.40 86.46 333.68 100.38 C 347.14 107.98 360.84 115.14 374.40 122.57 C 377.42 124.30 381.39 125.65 382.45 129.38 C 383.82 133.37 381.07 138.04 376.96 138.87 C 374.69 139.50 372.43 138.59 370.47 137.53 C 357.02 130.22 343.57 122.93 330.11 115.64 C 327.00 120.63 322.74 125.00 317.36 127.53 C 310.38 131.01 302.11 131.22 294.75 128.80 C 285.74 139.05 276.82 149.37 267.84 159.64 C 316.29 185.97 364.78 212.23 413.29 238.45 C 428.64 220.86 443.98 203.28 459.30 185.66 C 441.18 175.78 423.02 165.98 404.88 156.13 C 401.51 154.58 399.49 150.52 400.79 146.96 C 402.02 142.64 407.50 140.41 411.40 142.68 C 429.83 152.55 448.21 162.56 466.60 172.53 C 475.29 176.40 477.44 188.97 470.61 195.56 C 456.38 211.83 442.21 228.14 428.00 244.42 C 442.79 249.43 457.59 254.42 472.37 259.47 C 477.03 261.03 480.78 265.07 481.74 269.92 C 483.20 276.00 480.12 282.69 474.59 285.57 C 457.26 295.05 439.88 304.42 422.50 313.81 C 422.44 346.52 422.52 379.23 422.46 411.94 C 422.59 419.80 417.93 427.36 410.96 430.92 C 364.08 456.40 317.13 481.75 270.24 507.21 C 266.43 509.37 262.44 511.38 258.04 512.00 L 254.20 512.00 C 251.24 511.55 248.32 510.71 245.68 509.27 C 197.48 483.15 149.27 457.02 101.06 430.91 C 94.06 427.37 89.40 419.79 89.54 411.93 C 89.54 400.93 89.44 389.93 89.58 378.94 C 89.52 375.02 93.10 371.60 96.98 371.67 C 100.93 371.55 104.53 375.04 104.47 379.00 C 104.66 389.99 104.38 401.00 104.57 411.99 C 104.47 414.45 106.01 416.67 108.19 417.70 C 154.94 443.09 201.75 468.36 248.49 493.75 C 248.50 444.02 248.51 394.29 248.49 344.55 C 230.55 350.59 212.67 356.79 194.70 362.74 C 189.13 364.67 182.80 364.34 177.59 361.51 C 153.22 348.36 128.91 335.10 104.53 321.96 C 104.46 328.65 104.62 335.36 104.48 342.05 C 104.64 346.08 101.06 349.73 97.02 349.61 C 92.97 349.73 89.36 346.06 89.56 342.00 C 89.44 332.61 89.58 323.22 89.51 313.82 C 71.97 304.21 54.31 294.83 36.80 285.18 C 29.93 281.39 27.85 271.62 32.21 265.20 C 34.40 261.53 38.45 259.70 42.38 258.51 C 56.27 253.87 70.13 249.16 83.99 244.43 C 70.60 229.02 57.17 213.64 43.75 198.25 C 41.39 195.53 38.69 192.84 37.78 189.23 C 35.99 183.05 38.98 175.93 44.70 172.95 C 68.64 159.99 92.54 146.95 116.51 134.04 C 110.42 128.58 105.97 121.17 104.80 113.01 C 102.81 101.17 107.65 88.55 116.99 81.01 M 134.42 88.66 C 127.05 90.32 120.99 96.63 119.70 104.08 C 118.18 111.58 121.64 119.72 128.03 123.90 C 133.61 127.71 141.21 128.27 147.28 125.30 C 152.90 122.65 157.10 117.17 158.12 111.03 C 159.29 104.72 157.02 97.94 152.35 93.55 C 147.70 89.03 140.72 87.14 134.42 88.66 M 299.43 88.60 C 292.74 91.21 289.05 99.40 291.61 106.13 C 293.88 113.03 302.05 117.17 308.95 114.78 C 316.17 112.69 320.56 104.17 317.97 97.08 C 315.70 89.62 306.58 85.42 299.43 88.60 M 170.62 121.84 C 165.21 132.78 154.40 141.15 142.02 142.06 C 138.61 142.82 134.83 140.94 131.71 142.82 C 105.40 157.13 79.06 171.39 52.72 185.63 C 68.00 203.31 83.40 220.88 98.76 238.49 C 147.22 212.19 195.74 186.00 244.18 159.66 C 228.83 142.06 213.50 124.44 198.14 106.85 C 188.99 111.88 179.72 116.72 170.62 121.84 M 112.78 247.95 C 135.46 260.22 158.13 272.51 180.79 284.80 C 177.81 266.07 182.02 246.29 192.63 230.55 C 202.67 215.36 218.31 203.93 235.92 199.24 C 239.33 198.30 243.15 200.33 244.47 203.57 C 245.90 206.78 244.66 210.90 241.67 212.75 C 239.41 214.03 236.82 214.54 234.42 215.47 C 218.02 221.54 204.66 235.09 198.66 251.49 C 193.49 265.27 193.64 280.91 198.93 294.64 C 217.97 304.90 236.98 315.22 256.00 325.54 C 275.04 315.31 294.00 304.94 313.04 294.70 C 318.55 280.49 318.51 264.21 312.78 250.07 C 306.06 233.04 291.34 219.34 273.75 214.15 C 270.33 213.43 267.24 210.66 267.13 207.00 C 266.69 202.33 271.45 198.08 276.03 199.25 C 296.33 204.57 313.91 218.99 323.52 237.60 C 331.09 251.97 333.71 268.77 331.21 284.80 C 353.88 272.54 376.55 260.26 399.20 247.95 C 351.50 222.02 303.74 196.21 256.01 170.35 C 208.27 196.22 160.52 222.07 112.78 247.95 M 45.98 273.18 C 90.90 297.50 135.84 321.80 180.72 346.19 C 183.50 347.65 186.56 349.99 189.85 348.55 C 205.67 343.19 221.51 337.94 237.29 332.48 C 190.29 306.98 143.30 281.48 96.24 256.10 C 79.50 261.84 62.72 267.46 45.98 273.18 M 412.00 258.09 C 366.25 282.92 320.46 307.70 274.70 332.51 C 290.53 337.74 306.26 343.24 322.07 348.52 C 323.98 349.32 326.14 349.04 327.90 348.01 C 373.96 323.10 419.99 298.14 466.01 273.18 C 449.79 267.59 433.50 262.16 417.26 256.62 C 415.35 255.55 413.65 257.35 412.00 258.09 M 334.39 361.54 C 327.69 365.32 319.65 364.12 312.87 361.25 C 296.44 355.62 279.96 350.12 263.51 344.55 C 263.50 394.29 263.50 444.02 263.51 493.75 C 310.28 468.47 357.03 443.13 403.76 417.76 C 406.36 416.59 407.73 413.76 407.48 410.98 C 407.48 381.32 407.47 351.67 407.48 322.02 C 383.08 335.12 358.78 348.41 334.39 361.54 Z" />
<path fill="#000000" opacity="1.00" d=" M 388.48 87.61 C 385.60 82.96 389.55 76.30 394.99 76.52 C 400.23 76.62 402.90 81.90 406.55 84.88 C 409.19 82.44 411.43 79.53 414.40 77.46 C 419.08 74.55 425.79 78.55 425.50 84.04 C 425.32 89.22 420.15 91.91 417.14 95.48 C 419.58 98.11 422.47 100.36 424.53 103.32 C 427.48 107.98 423.51 114.72 418.03 114.47 C 412.81 114.34 410.16 109.09 406.55 106.11 C 403.38 108.81 401.03 112.78 396.98 114.22 C 391.67 115.91 386.10 110.30 387.81 105.01 C 389.26 100.96 393.28 98.67 395.93 95.46 C 393.47 92.83 390.55 90.58 388.48 87.61 Z" />
<path fill="#000000" opacity="1.00" d=" M 221.36 258.56 C 226.76 256.85 232.45 262.60 230.53 267.99 C 229.16 273.28 221.65 275.10 218.00 271.04 C 213.97 267.30 215.99 259.76 221.36 258.56 Z" />
<path fill="#000000" opacity="1.00" d=" M 286.41 258.65 C 291.47 256.82 297.22 261.75 296.08 267.04 C 295.39 272.68 287.70 275.38 283.66 271.36 C 279.33 267.85 281.01 260.05 286.41 258.65 Z" />
<path fill="#000000" opacity="1.00" d=" M 247.33 281.49 C 256.64 279.14 267.19 281.08 274.53 287.42 C 277.69 290.00 278.01 295.20 275.16 298.13 C 272.64 301.01 267.93 301.38 265.00 298.93 C 259.76 294.74 251.77 294.32 246.29 298.28 C 244.00 300.07 240.92 301.22 238.08 299.99 C 233.37 298.37 231.67 291.73 235.13 288.10 C 238.45 284.79 242.83 282.68 247.33 281.49 Z" />
<path fill="#000000" opacity="1.00" d=" M 313.22 424.23 C 317.03 422.71 321.69 425.15 322.80 429.04 C 323.96 432.45 322.20 436.43 318.98 437.99 C 313.57 440.99 308.12 443.91 302.68 446.85 C 300.35 448.21 297.34 448.56 294.95 447.18 C 291.53 445.44 289.94 440.92 291.66 437.46 C 292.84 434.69 295.80 433.54 298.26 432.18 C 303.28 429.59 308.10 426.61 313.22 424.23 Z" />
</g>
</svg>
