<svg width="60" height="61" viewBox="0 0 60 61" fill="none" xmlns="http://www.w3.org/2000/svg">
<path fill-rule="evenodd" clip-rule="evenodd" d="M45.032 38.8036C46.274 38.8036 47.282 37.7956 47.282 36.5536V30.9976C47.282 29.7556 46.274 28.7476 45.032 28.7476H27.956C26.984 25.5466 24.038 23.1946 20.522 23.1946C16.22 23.1946 12.719 26.6956 12.719 30.9976C12.719 35.3026 16.22 38.8036 20.522 38.8036C24.038 38.8036 26.984 36.4516 27.956 33.2476H34.292V36.5536C34.292 37.7956 35.3 38.8036 36.542 38.8036C37.784 38.8036 38.792 37.7956 38.792 36.5536V33.2476H42.782V36.5536C42.782 37.7956 43.79 38.8036 45.032 38.8036ZM16.997 0.997559H43.004C53.168 0.997559 59.999 8.13156 59.999 18.7486V43.2496C59.999 53.8666 53.168 60.9976 43.001 60.9976H16.997C6.83002 60.9976 -0.000976562 53.8666 -0.000976562 43.2496V18.7486C-0.000976562 8.13156 6.83002 0.997559 16.997 0.997559ZM17.2163 31.0003C17.2163 29.1763 18.7013 27.6943 20.5223 27.6943C22.3433 27.6943 23.8283 29.1763 23.8283 31.0003C23.8283 32.8213 22.3433 34.3033 20.5223 34.3033C18.7013 34.3033 17.2163 32.8213 17.2163 31.0003Z" fill="white"/>
</svg>
