<svg width="16" height="16" viewBox="0 0 16 16" fill="none" xmlns="http://www.w3.org/2000/svg">
<path d="M12.5169 0H12.7913C13.3088 0.0334375 13.8191 0.207188 14.2353 0.519063C14.6894 0.8525 15.0335 1.33281 15.201 1.87094C15.3866 2.45969 15.3582 3.11313 15.1207 3.68313C14.8853 4.255 14.4447 4.73938 13.8966 5.02625C13.4153 5.28281 12.8532 5.38094 12.3125 5.31063C11.6978 5.23375 11.1182 4.92875 10.6975 4.475C9.0894 5.39062 7.4819 6.30687 5.87472 7.22406C6.02659 7.72656 6.02659 8.2725 5.87503 8.77531C7.48128 9.69344 9.08972 10.6081 10.6972 11.5247C11.0466 11.15 11.5022 10.8731 12.0003 10.7491C12.6019 10.5947 13.2578 10.6597 13.816 10.9322C14.3791 11.2031 14.8391 11.6797 15.0925 12.2506C15.315 12.7472 15.3778 13.3128 15.2722 13.8466C15.1697 14.38 14.8953 14.8775 14.5044 15.2541C14.0478 15.6984 13.4282 15.9609 12.7938 16H12.52C12.1485 15.9728 11.7797 15.8813 11.4482 15.7091C10.8532 15.4081 10.3797 14.8756 10.1519 14.2491C9.96909 13.7559 9.94378 13.2097 10.0641 12.6987C8.43503 11.7722 6.80815 10.8416 5.17909 9.91469C4.69847 10.3787 4.04284 10.6572 3.37347 10.6656C2.76722 10.6797 2.16003 10.4753 1.68347 10.1006C1.23784 9.75375 0.905966 9.26281 0.755029 8.71813C0.590654 8.13406 0.633154 7.49344 0.877216 6.9375C1.11347 6.3925 1.53815 5.93188 2.0619 5.65188C2.60128 5.35719 3.24472 5.26406 3.84659 5.38531C4.3469 5.48281 4.81222 5.73313 5.1794 6.085C6.80784 5.1575 8.43503 4.22781 10.0638 3.30094C9.96753 2.88437 9.96315 2.44531 10.0669 2.02969C10.2041 1.46344 10.5363 0.94875 10.9913 0.585312C11.4222 0.235625 11.9647 0.035625 12.5169 0Z" fill="white"/>
</svg>
